<?xml version="1.0" encoding="UTF-8" standalone="no"?>
<svg
   xml:space="preserve"
   id="Layer_1"
   x="0"
   y="0"
   version="1.1"
   viewBox="0 0 216 216"
   sodipodi:docname="QGCLogoWhite.svg"
   inkscape:version="1.4.2 (ebf0e94, 2025-05-08)"
   width="216"
   height="216"
   xmlns:inkscape="http://www.inkscape.org/namespaces/inkscape"
   xmlns:sodipodi="http://sodipodi.sourceforge.net/DTD/sodipodi-0.dtd"
   xmlns="http://www.w3.org/2000/svg"
   xmlns:svg="http://www.w3.org/2000/svg"><defs
   id="defs5" /><sodipodi:namedview
   id="namedview5"
   pagecolor="#ff6859"
   bordercolor="#000000"
   borderopacity="0.25"
   inkscape:showpageshadow="2"
   inkscape:pageopacity="0.0"
   inkscape:pagecheckerboard="0"
   inkscape:deskcolor="#d1d1d1"
   inkscape:zoom="4.58"
   inkscape:cx="107.86026"
   inkscape:cy="125.10917"
   inkscape:window-width="1881"
   inkscape:window-height="1413"
   inkscape:window-x="1510"
   inkscape:window-y="43"
   inkscape:window-maximized="0"
   inkscape:current-layer="Layer_1" />
    <style
   id="style1">
        .st1{fill:#5ecbf1}
    </style>
    <path
   id="path1"
   style="fill:#ffffff"
   d="m 115.50586,55.134766 v 23.318359 c 9.9814,1.801781 18.28981,8.415052 22.4375,17.351563 a 59.440711,59.440711 0 0 1 15.27148,-1.996094 59.440711,59.440711 0 0 1 8.72071,0.644531 C 156.14478,73.339255 137.84306,57.405091 115.50586,55.134766 Z M 56.402344,114.43164 c 2.278796,21.72158 17.481199,39.59927 37.785156,45.81641 A 59.440711,59.440711 0 0 1 93.773438,153.25 59.440711,59.440711 0 0 1 96.240234,136.30469 C 87.768253,132.06508 81.52473,124.03137 79.734375,114.43164 Z" />
    <path
   d="m 104.247,39.564 c -0.129,0 -0.377,0.018 -0.385,0.019 -33.409,2.944 -60.044,29.582 -62.971,63.031 l -0.022,0.358 a 3.909,3.909 0 1 0 7.804,0.45 l -0.002,-10e-4 C 51.217,73.702 74.83,50.009 104.493,47.376 a 3.914,3.914 0 0 0 3.662,-3.903 3.907,3.907 0 0 0 -3.908,-3.909"
   class="st1"
   id="path2" />
    <path
   d="m 104.252,55.104 a 4,4 0 0 0 -0.475,0.03 c -25.063,2.893 -45.007,23.272 -47.393,47.639 0,0 -0.03,0.32 -0.03,0.486 a 3.909,3.909 0 0 0 7.813,0.186 l 0.001,-0.063 C 66.619,82.226 83.366,65.433 104.493,62.919 V 62.9 c 1.982,-0.124 3.569,-1.709 3.662,-3.7 q 0.004,-0.092 0.004,-0.185 a 3.91,3.91 0 0 0 -3.907,-3.911"
   class="st1"
   id="path3" />
    <path
   d="m 104.247,70.708 c -0.247,0 -0.494,0.024 -0.729,0.068 C 87.417,73.508 74.667,86.31 72.013,102.44 q -0.012,0.064 -0.023,0.129 a 5,5 0 0 0 -0.071,0.704 3.909,3.909 0 0 0 7.801,0.356 c 0.005,-0.057 0.031,-0.316 0.038,-0.357 2.255,-12.578 12.164,-22.477 24.735,-24.752 0,0 0.142,-0.013 0.212,-0.022 a 3.91,3.91 0 0 0 3.45,-3.883 3.907,3.907 0 0 0 -3.908,-3.907"
   class="st1"
   id="path4" />
    <path
   d="m 212,152 c 0,33 -27,60 -60,60 H 64 C 31,212 4,185 4,152 V 64 C 4,31 31,4 64,4 h 88 c 33,0 60,27 60,60 z"
   style="fill:none;stroke:#ffffff;stroke-width:8;stroke-miterlimit:10"
   id="path5" />
<path
   style="font-size:45.5216px;line-height:0;font-family:Garet;-inkscape-font-specification:Garet;text-align:center;text-anchor:middle;fill:#fffffc;stroke:#ffffff;stroke-width:5.26989;stroke-linecap:round;stroke-linejoin:round;stroke-miterlimit:3.6"
   d="m 113.27904,114.2146 h 3.20594 l 16.36716,28.00981 16.36713,-28.00981 h 3.1497 v 44.76458 h -3.37463 v -37.60225 l -14.73606,25.13211 h -2.81224 l -14.73606,-25.13211 v 37.60225 h -3.43094 z m 69.012,45.59595 q -5.73694,0 -10.29272,-2.94171 -4.55581,-3.00563 -7.14307,-8.24944 -2.53102,-5.30785 -2.53102,-12.0225 0,-6.71472 2.53102,-11.95853 2.58726,-5.30782 7.14307,-8.24949 4.55578,-3.0056 10.29272,-3.0056 6.74935,0 11.8676,4.1567 5.1745,4.15672 7.08678,11.19111 h -3.59965 q -1.68734,-5.30778 -5.79316,-8.37735 -4.10585,-3.06957 -9.50534,-3.06957 -4.78078,0 -8.54916,2.43005 -3.76838,2.43012 -5.90566,6.84262 -2.08104,4.41247 -2.08104,10.04006 0,5.62751 2.08104,10.04005 2.13728,4.41253 5.90566,6.84259 3.76838,2.43009 8.54916,2.43009 5.5682,0 9.78654,-3.19748 4.21833,-3.19747 5.84947,-8.76106 h 3.59962 q -1.18114,4.79621 -3.9934,8.37736 -2.81219,3.58118 -6.7493,5.56358 -3.93713,1.91852 -8.54916,1.91852 z"
   id="text1"
   aria-label="MC" /></svg>
